<svg xmlns="http://www.w3.org/2000/svg" viewBox="0 0 155 60"><defs><style>.cls-1,.cls-2{fill:#fff;}.cls-1{fill-opacity:0;}</style></defs><title>btn_appstore</title><g id="Layer_2" data-name="Layer 2"><g id="artwork"><rect class="cls-1" width="155" height="60"/><path d="M140.2,50H14.73A4.74,4.74,0,0,1,10,45.27V14.73A4.73,4.73,0,0,1,14.73,10H140.2a4.8,4.8,0,0,1,4.8,4.73V45.27A4.8,4.8,0,0,1,140.2,50Z"/><path d="M144,45.27a3.83,3.83,0,0,1-3.83,3.83H14.73a3.83,3.83,0,0,1-3.84-3.83V14.72a3.84,3.84,0,0,1,3.84-3.84H140.2A3.83,3.83,0,0,1,144,14.72V45.27Z"/><path class="cls-2" d="M40.13,29.78a5.8,5.8,0,0,1,2.76-4.86,5.94,5.94,0,0,0-4.68-2.53c-2-.21-3.87,1.18-4.88,1.18s-2.57-1.16-4.23-1.12a6.23,6.23,0,0,0-5.24,3.2c-2.27,3.92-.58,9.69,1.6,12.86,1.09,1.55,2.36,3.29,4,3.23s2.23-1,4.19-1,2.51,1,4.21,1,2.84-1.56,3.89-3.13a12.83,12.83,0,0,0,1.78-3.62A5.6,5.6,0,0,1,40.13,29.78Z"/><path class="cls-2" d="M36.93,20.31a5.71,5.71,0,0,0,1.31-4.09,5.81,5.81,0,0,0-3.76,1.94,5.43,5.43,0,0,0-1.34,3.94A4.8,4.8,0,0,0,36.93,20.31Z"/><path class="cls-2" d="M63.65,41.5H61.37l-1.24-3.91H55.81L54.62,41.5H52.41L56.69,28.2h2.65ZM59.76,36l-1.12-3.48Q58.45,31.95,58,30h0q-.2.85-.63,2.51L56.18,36Z"/><path class="cls-2" d="M74.66,36.59a5.45,5.45,0,0,1-1.32,3.87,3.87,3.87,0,0,1-2.94,1.26,2.94,2.94,0,0,1-2.72-1.36h0v5.05H65.5V35.07q0-1.54-.08-3.16H67.3l.12,1.52h0a3.79,3.79,0,0,1,6.07-.38A5.29,5.29,0,0,1,74.66,36.59Zm-2.17.08a4,4,0,0,0-.63-2.31A2.18,2.18,0,0,0,70,33.41a2.22,2.22,0,0,0-1.43.52,2.43,2.43,0,0,0-.84,1.37,2.79,2.79,0,0,0-.1.65v1.6a2.56,2.56,0,0,0,.64,1.77,2.13,2.13,0,0,0,1.67.72,2.18,2.18,0,0,0,1.88-.93A4.08,4.08,0,0,0,72.49,36.67Z"/><path class="cls-2" d="M85.7,36.59a5.45,5.45,0,0,1-1.32,3.87,3.86,3.86,0,0,1-2.94,1.26,2.94,2.94,0,0,1-2.72-1.36h0v5.05H76.54V35.07q0-1.54-.08-3.16h1.88l.12,1.52h0a3.79,3.79,0,0,1,6.07-.38A5.3,5.3,0,0,1,85.7,36.59Zm-2.17.08a4,4,0,0,0-.63-2.31A2.18,2.18,0,0,0,81,33.41a2.22,2.22,0,0,0-1.43.52,2.42,2.42,0,0,0-.84,1.37,2.85,2.85,0,0,0-.1.65v1.6a2.57,2.57,0,0,0,.64,1.77A2.13,2.13,0,0,0,81,40a2.18,2.18,0,0,0,1.88-.93A4.08,4.08,0,0,0,83.53,36.67Z"/><path class="cls-2" d="M98,37.77a3.55,3.55,0,0,1-1.18,2.76,5.24,5.24,0,0,1-3.62,1.17,6.35,6.35,0,0,1-3.45-.83l.49-1.78a5.84,5.84,0,0,0,3.08.85,2.91,2.91,0,0,0,1.88-.54,1.78,1.78,0,0,0,.67-1.45,1.85,1.85,0,0,0-.55-1.36,5.14,5.14,0,0,0-1.84-1Q90,34.25,90,31.74A3.38,3.38,0,0,1,91.25,29a4.83,4.83,0,0,1,3.26-1,6.46,6.46,0,0,1,3,.63L97,30.37a5.24,5.24,0,0,0-2.55-.61,2.58,2.58,0,0,0-1.76.55,1.58,1.58,0,0,0-.53,1.2,1.63,1.63,0,0,0,.61,1.3,6.91,6.91,0,0,0,1.94,1,6.57,6.57,0,0,1,2.53,1.62A3.38,3.38,0,0,1,98,37.77Z"/><path class="cls-2" d="M105.09,33.51h-2.35v4.66q0,1.78,1.24,1.78a3.79,3.79,0,0,0,.95-.1l.06,1.62a4.83,4.83,0,0,1-1.66.24,2.56,2.56,0,0,1-2-.77,3.78,3.78,0,0,1-.71-2.59V33.51h-1.4v-1.6h1.4V30.15l2.09-.63v2.39h2.35Z"/><path class="cls-2" d="M115.69,36.63a5.26,5.26,0,0,1-1.26,3.63,4.51,4.51,0,0,1-3.52,1.46,4.29,4.29,0,0,1-3.36-1.4,5.1,5.1,0,0,1-1.25-3.53,5.21,5.21,0,0,1,1.29-3.65,4.47,4.47,0,0,1,3.48-1.42,4.38,4.38,0,0,1,3.4,1.4A5,5,0,0,1,115.69,36.63Zm-2.21.07a4.32,4.32,0,0,0-.57-2.28A2.11,2.11,0,0,0,111,33.27a2.14,2.14,0,0,0-2,1.15,4.4,4.4,0,0,0-.57,2.32A4.31,4.31,0,0,0,109,39a2.18,2.18,0,0,0,3.85,0A4.33,4.33,0,0,0,113.48,36.7Z"/><path class="cls-2" d="M122.62,33.78a3.7,3.7,0,0,0-.67-.06,2,2,0,0,0-1.74.85,3.19,3.19,0,0,0-.53,1.9v5h-2.13l0-6.57q0-1.66-.08-3h1.86l.08,1.84h.06a3.28,3.28,0,0,1,1.07-1.52,2.58,2.58,0,0,1,1.54-.51,3.42,3.42,0,0,1,.53,0Z"/><path class="cls-2" d="M132.16,36.25a5,5,0,0,1-.08,1h-6.4a2.78,2.78,0,0,0,.93,2.17,3.17,3.17,0,0,0,2.09.67,7.07,7.07,0,0,0,2.59-.45l.33,1.48a8,8,0,0,1-3.22.59,4.66,4.66,0,0,1-3.51-1.31,4.85,4.85,0,0,1-1.27-3.52,5.5,5.5,0,0,1,1.19-3.61,4.09,4.09,0,0,1,3.36-1.54,3.58,3.58,0,0,1,3.14,1.54A5.19,5.19,0,0,1,132.16,36.25Zm-2-.55a2.9,2.9,0,0,0-.41-1.64,1.86,1.86,0,0,0-1.7-.89,2,2,0,0,0-1.7.87,3.18,3.18,0,0,0-.63,1.66h4.44Z"/><path class="cls-2" d="M59,20A3.28,3.28,0,0,1,58,22.67a4.21,4.21,0,0,1-2.78.82,12.9,12.9,0,0,1-1.53-.08V17a11.31,11.31,0,0,1,1.81-.14,3.89,3.89,0,0,1,2.59.75A3,3,0,0,1,59,20Zm-1.1,0a2.13,2.13,0,0,0-2.38-2.37,4.44,4.44,0,0,0-.84.07v4.89a5.53,5.53,0,0,0,.71,0A2.48,2.48,0,0,0,57.29,22,2.68,2.68,0,0,0,57.94,20Z"/><path class="cls-2" d="M64.91,21a2.59,2.59,0,0,1-.62,1.78,2.22,2.22,0,0,1-1.73.72,2.11,2.11,0,0,1-1.65-.69,2.51,2.51,0,0,1-.62-1.74,2.56,2.56,0,0,1,.63-1.79,2.2,2.2,0,0,1,1.71-.7,2.16,2.16,0,0,1,1.67.69A2.49,2.49,0,0,1,64.91,21Zm-1.09,0A2.13,2.13,0,0,0,63.54,20a1,1,0,0,0-.94-.56,1.05,1.05,0,0,0-1,.56,2.16,2.16,0,0,0-.28,1.14,2.13,2.13,0,0,0,.28,1.12,1.06,1.06,0,0,0,1,.56,1,1,0,0,0,.94-.57A2.12,2.12,0,0,0,63.82,21.07Z"/><path class="cls-2" d="M72.76,18.72l-1.47,4.71h-1l-.61-2a15.32,15.32,0,0,1-.38-1.52h0a11.15,11.15,0,0,1-.38,1.52l-.65,2h-1l-1.39-4.71H67L67.54,21q.19.79.32,1.51h0q.12-.59.39-1.5l.67-2.25h.85l.64,2.2q.23.81.38,1.55h0a14.83,14.83,0,0,1,.32-1.55l.57-2.2h1Z"/><path class="cls-2" d="M78.2,23.43h-1v-2.7q0-1.25-.95-1.25a1,1,0,0,0-.76.34,1.22,1.22,0,0,0-.29.81v2.8h-1V20.07q0-.62,0-1.35H75l0,.74h0a1.51,1.51,0,0,1,.54-.57,1.77,1.77,0,0,1,.95-.27,1.5,1.5,0,0,1,1.1.43,2.07,2.07,0,0,1,.54,1.56Z"/><path class="cls-2" d="M81.09,23.43H80V16.56h1Z"/><path class="cls-2" d="M87.26,21a2.59,2.59,0,0,1-.62,1.78,2.22,2.22,0,0,1-1.73.72,2.1,2.1,0,0,1-1.65-.69,2.51,2.51,0,0,1-.61-1.74,2.56,2.56,0,0,1,.64-1.79,2.2,2.2,0,0,1,1.71-.7,2.16,2.16,0,0,1,1.67.69A2.49,2.49,0,0,1,87.26,21Zm-1.09,0A2.13,2.13,0,0,0,85.89,20a1,1,0,0,0-.94-.56A1,1,0,0,0,84,20a2.16,2.16,0,0,0-.28,1.14A2.13,2.13,0,0,0,84,22.21a1.06,1.06,0,0,0,1,.56,1,1,0,0,0,.94-.57A2.11,2.11,0,0,0,86.17,21.07Z"/><path class="cls-2" d="M92.33,23.43h-.94l-.08-.54h0a1.61,1.61,0,0,1-1.38.65,1.42,1.42,0,0,1-1.08-.43,1.34,1.34,0,0,1-.37-1,1.46,1.46,0,0,1,.72-1.32,3.75,3.75,0,0,1,2-.45V20.3q0-.93-1-.93a2.19,2.19,0,0,0-1.23.35L88.8,19a3,3,0,0,1,1.62-.41q1.85,0,1.85,1.95v1.74A7.36,7.36,0,0,0,92.33,23.43Zm-1.09-1.62v-.73q-1.73,0-1.73.95a.71.71,0,0,0,.2.55.73.73,0,0,0,.51.18,1.06,1.06,0,0,0,.64-.22.89.89,0,0,0,.38-.74Z"/><path class="cls-2" d="M98.29,23.43h-.93l0-.76h0a1.57,1.57,0,0,1-1.51.86,1.77,1.77,0,0,1-1.42-.67,2.61,2.61,0,0,1-.56-1.74,2.73,2.73,0,0,1,.61-1.85,1.88,1.88,0,0,1,1.46-.66,1.41,1.41,0,0,1,1.33.64h0V16.56h1v5.61Q98.25,22.85,98.29,23.43Zm-1.09-2v-.79a1.54,1.54,0,0,0,0-.33,1.19,1.19,0,0,0-.38-.64,1,1,0,0,0-.7-.26,1.08,1.08,0,0,0-.92.47,2,2,0,0,0-.34,1.19,1.86,1.86,0,0,0,.32,1.14,1.08,1.08,0,0,0,.92.47,1,1,0,0,0,.83-.39A1.29,1.29,0,0,0,97.2,21.44Z"/><path class="cls-2" d="M107.25,21a2.59,2.59,0,0,1-.62,1.78,2.21,2.21,0,0,1-1.73.72,2.11,2.11,0,0,1-1.65-.69,2.51,2.51,0,0,1-.61-1.74,2.56,2.56,0,0,1,.64-1.79,2.2,2.2,0,0,1,1.71-.7,2.15,2.15,0,0,1,1.67.69A2.49,2.49,0,0,1,107.25,21Zm-1.09,0a2.13,2.13,0,0,0-.28-1.12,1,1,0,0,0-.94-.56,1.05,1.05,0,0,0-1,.56,2.16,2.16,0,0,0-.28,1.14,2.13,2.13,0,0,0,.28,1.12,1.07,1.07,0,0,0,1.89,0A2.13,2.13,0,0,0,106.16,21.07Z"/><path class="cls-2" d="M112.88,23.43h-1v-2.7q0-1.25-1-1.25a.94.94,0,0,0-.76.34,1.21,1.21,0,0,0-.29.81v2.8h-1V20.07q0-.62,0-1.35h.92l0,.74h0a1.53,1.53,0,0,1,.54-.57,1.77,1.77,0,0,1,1-.27,1.5,1.5,0,0,1,1.1.43,2.07,2.07,0,0,1,.54,1.56Z"/><path class="cls-2" d="M119.94,19.5h-1.15v2.29c0,.58.21.87.61.87a1.85,1.85,0,0,0,.47,0l0,.8a2.35,2.35,0,0,1-.81.12,1.25,1.25,0,0,1-1-.38,1.85,1.85,0,0,1-.35-1.27V19.5h-.69v-.78h.69v-.86l1-.31v1.17h1.15v.79Z"/><path class="cls-2" d="M125.48,23.43h-1V20.75q0-1.27-.95-1.27a1,1,0,0,0-1,.73,1.32,1.32,0,0,0,0,.38v2.84h-1V16.56h1V19.4h0a1.58,1.58,0,0,1,1.42-.77A1.46,1.46,0,0,1,125,19a2.15,2.15,0,0,1,.53,1.58Z"/><path class="cls-2" d="M131.21,20.85a2.53,2.53,0,0,1,0,.48H128a1.37,1.37,0,0,0,.46,1.07,1.56,1.56,0,0,0,1,.33,3.47,3.47,0,0,0,1.27-.22l.16.73a4,4,0,0,1-1.58.29,2.28,2.28,0,0,1-1.72-.64,2.38,2.38,0,0,1-.62-1.73,2.7,2.7,0,0,1,.58-1.77,2,2,0,0,1,1.65-.76,1.75,1.75,0,0,1,1.54.76A2.52,2.52,0,0,1,131.21,20.85Zm-1-.27a1.41,1.41,0,0,0-.2-.81.92.92,0,0,0-.83-.44,1,1,0,0,0-.83.43,1.59,1.59,0,0,0-.31.81Z"/></g></g></svg>