<svg width="159" height="159" viewBox="0 0 159 159" fill="none" xmlns="http://www.w3.org/2000/svg">
<path d="M119.25 39.75H106C106 25.1087 94.1413 13.25 79.5 13.25C64.8587 13.25 53 25.1087 53 39.75H39.75C32.4625 39.75 26.5 45.7125 26.5 53V132.5C26.5 139.788 32.4625 145.75 39.75 145.75H119.25C126.538 145.75 132.5 139.788 132.5 132.5V53C132.5 45.7125 126.538 39.75 119.25 39.75ZM79.5 26.5C86.7875 26.5 92.75 32.4625 92.75 39.75H66.25C66.25 32.4625 72.2125 26.5 79.5 26.5ZM119.25 132.5H39.75V53H53V66.25C53 69.8938 55.9812 72.875 59.625 72.875C63.2688 72.875 66.25 69.8938 66.25 66.25V53H92.75V66.25C92.75 69.8938 95.7312 72.875 99.375 72.875C103.019 72.875 106 69.8938 106 66.25V53H119.25V132.5Z" fill="black"/>
<circle cx="119.25" cy="119.25" r="36.4375" fill="#F6B400" stroke="black" stroke-width="6.625"/>
<path d="M104.965 123.196C104.965 121.979 105.34 120.957 106.091 120.129C106.867 119.275 107.98 118.848 109.429 118.848C110.878 118.848 111.978 119.275 112.729 120.129C113.505 120.957 113.893 121.979 113.893 123.196C113.893 124.386 113.505 125.396 112.729 126.224C111.978 127.052 110.878 127.466 109.429 127.466C107.98 127.466 106.867 127.052 106.091 126.224C105.34 125.396 104.965 124.386 104.965 123.196ZM125.927 123.196C125.927 121.979 126.302 120.957 127.052 120.129C127.829 119.275 128.942 118.848 130.391 118.848C131.84 118.848 132.94 119.275 133.69 120.129C134.467 120.957 134.855 121.979 134.855 123.196C134.855 124.386 134.467 125.396 133.69 126.224C132.94 127.052 131.84 127.466 130.391 127.466C128.942 127.466 127.829 127.052 127.052 126.224C126.302 125.396 125.927 124.386 125.927 123.196Z" fill="black"/>
</svg>
